HIERARCHY
ROOT Hips
{
	OFFSET 0.000000 0.000000 0.000000
	CHANNELS 6 Xposition Yposition Zposition Zrotation Yrotation Xrotation 
	JOINT LeftUpLeg_virtual
	{
		OFFSET 0.000000 0.000000 0.000000
		CHANNELS 3 Zrotation Yrotation Xrotation
		JOINT LeftUpLeg
		{
			OFFSET 8.479694 -4.795517 -0.379053
			CHANNELS 3 Zrotation Yrotation Xrotation
			JOINT LeftLeg
			{
				OFFSET 0.485052 -32.551468 0.112863
				CHANNELS 3 Zrotation Yrotation Xrotation
				JOINT LeftFoot
				{
					OFFSET 0.438033 -32.635670 -3.012641
					CHANNELS 3 Zrotation Yrotation Xrotation
					JOINT LeftToeBase
					{
						OFFSET 0.970169 -13.225353 11.864223
						CHANNELS 3 Zrotation Yrotation Xrotation
						End Site
						{
							OFFSET 0.000000 0.000000 0.000000
						}
					}
				}
			}
		}
	}
	JOINT RightUpLeg_virtual
	{
		OFFSET 0.000000 0.000000 0.000000
		CHANNELS 3 Zrotation Yrotation Xrotation
		JOINT RightUpLeg
		{
			OFFSET -8.479694 -4.795517 -0.379053
			CHANNELS 3 Zrotation Yrotation Xrotation
			JOINT RightLeg
			{
				OFFSET -0.484100 -32.551483 0.112903
				CHANNELS 3 Zrotation Yrotation Xrotation
				JOINT RightFoot
				{
					OFFSET -0.438985 -32.635651 -3.012681
					CHANNELS 3 Zrotation Yrotation Xrotation
					JOINT RightToeBase
					{
						OFFSET -0.970169 -13.225354 11.864223
						CHANNELS 3 Zrotation Yrotation Xrotation
						End Site
						{
							OFFSET 0.000000 0.000000 0.000000
						}
					}
				}
			}
		}
	}
	JOINT Spine_virtual
	{
		OFFSET 0.000000 0.000000 0.000000
		CHANNELS 3 Zrotation Yrotation Xrotation
		JOINT Spine
		{
			OFFSET 0.000000 7.722015 1.166203
			CHANNELS 3 Zrotation Yrotation Xrotation
			JOINT Spine1
			{
				OFFSET 0.000000 12.024086 0.248766
				CHANNELS 3 Zrotation Yrotation Xrotation
				JOINT Spine2
				{
					OFFSET -0.000000 11.503036 -0.491240
					CHANNELS 3 Zrotation Yrotation Xrotation
					JOINT Neck_virtual
					{
						OFFSET 0.000000 0.000000 0.000000
						CHANNELS 3 Zrotation Yrotation Xrotation
						JOINT Neck
						{
							OFFSET 0.000000 18.430687 -3.123054
							CHANNELS 3 Zrotation Yrotation Xrotation
							JOINT Head
							{
								OFFSET -0.000000 9.051071 1.034021
								CHANNELS 3 Zrotation Yrotation Xrotation
								End Site
								{
									OFFSET 0.000000 0.000000 0.000000
								}
							}
						}
					}
					JOINT LeftShoulder_virtual
					{
						OFFSET 0.000000 0.000000 0.000000
						CHANNELS 3 Zrotation Yrotation Xrotation
						JOINT LeftShoulder
						{
							OFFSET 6.197824 13.665230 -4.064723
							CHANNELS 3 Zrotation Yrotation Xrotation
							JOINT LeftArm
							{
								OFFSET 7.778132 -0.187073 -1.709282
								CHANNELS 3 Zrotation Yrotation Xrotation
								JOINT LeftForeArm
								{
									OFFSET 21.954697 0.000000 -2.041093
									CHANNELS 3 Zrotation Yrotation Xrotation
									JOINT LeftHand
									{
										OFFSET 22.992908 0.000000 -0.870901
										CHANNELS 3 Zrotation Yrotation Xrotation
										End Site
										{
											OFFSET 0.000000 0.000000 0.000000
										}
									}
								}
							}
						}
					}
					JOINT RightShoulder_virtual
					{
						OFFSET 0.000000 0.000000 0.000000
						CHANNELS 3 Zrotation Yrotation Xrotation
						JOINT RightShoulder
						{
							OFFSET -6.197824 13.665230 -4.064723
							CHANNELS 3 Zrotation Yrotation Xrotation
							JOINT RightArm
							{
								OFFSET -7.778132 -0.187073 -1.709282
								CHANNELS 3 Zrotation Yrotation Xrotation
								JOINT RightForeArm
								{
									OFFSET -21.954697 0.000000 -2.041093
									CHANNELS 3 Zrotation Yrotation Xrotation
									JOINT RightHand
									{
										OFFSET -22.992908 0.000000 -0.870901
										CHANNELS 3 Zrotation Yrotation Xrotation
										End Site
										{
											OFFSET 0.000000 0.000000 0.000000
										}
									}
								}
							}
						}
					}
				}
			}
		}
	}
}
MOTION
Frames: 10
Frame Time: 0.033333
-0.566894 22.761208 56.222984 179.982574 12.038715 179.996399 28.316952 -0.105520 -46.683824 -6.637910 13.899778 -101.382362 8.672394 -11.364357 116.019232 -21.039916 -19.876421 4.181462 0.000000 0.000000 0.000000 14.879671 10.260071 -42.056371 2.302622 -3.913900 -101.712862 -11.239560 -6.609534 93.170221 5.102584 25.759536 16.327521 0.000000 0.000000 0.000000 14.937979 5.994444 -22.305631 -2.836779 -4.219128 -0.443577 -5.158120 -1.410363 18.308908 -0.000223 0.013408 -0.023287 -5.017439 -1.987389 20.742301 3.812291 -5.663593 -0.761983 0.000000 0.000000 0.000000 -0.376214 -1.563886 14.174248 -1.299562 -2.304007 6.240346 -5.159637 -16.332787 -26.731605 5.527195 -58.553798 11.751993 0.000000 0.000000 0.000000 -8.214474 0.706941 12.953284 16.074089 11.678697 2.901166 72.125732 -16.836973 -1.511139 -21.908708 61.710097 -22.877085 0.000000 0.000000 0.000000 
-0.570942 22.755871 56.262241 179.981604 11.927265 179.955199 28.130563 -0.303232 -47.124303 -6.690592 13.506951 -100.920819 9.222109 -11.491692 114.832815 -20.718438 -20.068798 4.502316 0.000000 0.000000 0.000000 14.685371 10.027460 -42.427096 1.457300 -3.695705 -101.305352 -10.651447 -6.443950 92.731306 7.299153 26.968802 17.519273 0.000000 0.000000 0.000000 14.727916 5.850308 -22.699973 -2.697682 -4.096143 -0.763563 -5.165291 -1.200907 18.371399 0.024084 -0.001464 -0.027584 -5.023999 -1.944933 20.802825 3.848325 -5.597632 -0.501213 0.000000 0.000000 0.000000 -0.418468 -1.584398 14.172496 -1.978359 -1.735262 6.337689 -7.496571 -14.322377 -26.394253 5.360224 -58.212090 11.997511 0.000000 0.000000 0.000000 -8.226336 0.698179 12.923047 16.847450 11.096380 2.904066 71.038673 -16.888795 -1.524324 -22.821134 62.956804 -23.739316 0.000000 0.000000 0.000000 
-0.618393 22.786047 56.357723 179.872362 11.834162 179.866229 27.882197 -0.734746 -47.332296 -7.094167 13.133358 -100.524812 9.835446 -11.417249 112.785500 -20.221482 -20.323911 4.586953 0.000000 0.000000 0.000000 14.373623 9.644081 -42.744741 0.699121 -3.566805 -100.854662 -10.408359 -6.363250 92.184761 8.190461 27.179766 18.481075 0.000000 0.000000 0.000000 14.357814 5.679899 -23.040185 -2.608049 -4.025686 -1.046903 -5.236980 -1.200465 18.461301 0.008290 0.032408 -0.023837 -5.013057 -1.895823 20.789484 3.907945 -5.451807 -0.230050 0.000000 0.000000 0.000000 -0.422624 -1.471914 14.168067 -2.678779 -1.019932 6.453352 -9.756232 -12.633622 -26.002510 5.151712 -57.664459 12.344964 0.000000 0.000000 0.000000 -8.233051 0.741153 12.862566 17.583656 10.735124 2.937691 69.611307 -16.444544 -1.475604 -23.587406 63.712155 -24.588705 0.000000 0.000000 0.000000 
-0.734432 22.824839 56.446533 179.884411 11.585520 179.866598 27.708223 -1.346964 -47.580204 -7.530475 12.762144 -100.062319 10.634007 -11.247749 110.403997 -19.869825 -20.710541 4.485018 0.000000 0.000000 0.000000 14.063394 9.037762 -43.030608 0.061824 -3.494836 -100.566975 -10.566856 -6.355875 91.700180 7.933239 26.650708 19.084097 0.000000 0.000000 0.000000 13.994797 5.264434 -23.329356 -2.446071 -3.900418 -1.369670 -5.215914 -1.188480 18.497829 0.010635 -0.015069 0.003256 -5.014234 -1.818385 20.763469 4.030183 -5.305312 0.021073 0.000000 0.000000 0.000000 -0.437918 -1.416780 14.106838 -3.489030 -0.310675 6.610310 -11.997783 -11.013103 -25.379781 4.990401 -56.993100 12.681151 0.000000 0.000000 0.000000 -8.237669 0.798352 12.806358 18.317299 10.657160 3.001585 67.880585 -15.551998 -1.192089 -23.648178 64.002704 -24.436440 0.000000 0.000000 0.000000 
-0.839547 22.852299 56.533745 -179.988366 11.353292 179.959830 27.545378 -1.800965 -47.806782 -7.875059 12.397190 -99.489963 11.385772 -11.151386 108.063961 -19.490238 -21.186721 4.151606 0.000000 0.000000 0.000000 13.771447 8.561637 -43.283718 -0.305600 -3.477199 -100.372348 -10.871159 -6.383567 91.336274 6.352657 25.082651 19.037627 0.000000 0.000000 0.000000 13.640251 4.943386 -23.535399 -2.204063 -3.696884 -1.726133 -5.140054 -1.147329 18.464083 -0.020843 -0.005201 0.031926 -4.963453 -1.812873 20.712719 4.192645 -5.064031 0.234441 0.000000 0.000000 0.000000 -0.418537 -1.395561 14.081463 -4.370396 0.308021 6.699164 -14.152774 -9.565527 -24.570796 4.780322 -56.074900 13.168133 0.000000 0.000000 0.000000 -8.193721 0.799532 12.704814 19.049107 10.699088 3.093191 65.828585 -14.303444 -0.580563 -23.373802 63.876517 -24.055009 0.000000 0.000000 0.000000 
-0.948738 22.865526 56.618576 -179.987752 10.963976 179.985662 27.283621 -2.269085 -47.979449 -8.191403 12.018968 -98.807094 12.131730 -11.039438 105.538792 -19.060141 -21.574708 3.746858 0.000000 0.000000 0.000000 13.348797 7.983928 -43.519862 -0.644250 -3.431428 -100.293439 -11.157456 -6.437484 91.076229 4.851220 23.800040 18.544184 0.000000 0.000000 0.000000 13.210950 4.511504 -23.576618 -2.025564 -3.481413 -2.079049 -5.057996 -1.142320 18.371081 -0.018281 -0.004427 -0.003129 -4.902227 -1.843811 20.700838 4.326809 -4.745920 0.441395 0.000000 0.000000 0.000000 -0.368510 -1.401064 14.075107 -5.318752 0.882784 6.810285 -16.312251 -8.220262 -23.474998 4.756120 -55.052790 13.468359 0.000000 0.000000 0.000000 -8.116949 0.793082 12.715927 19.706361 10.881518 3.239086 63.567314 -12.840634 0.186075 -22.678178 63.386478 -23.281120 0.000000 0.000000 0.000000 
-1.025473 22.872643 56.677818 179.980594 10.499307 179.844837 26.962450 -2.822301 -48.098223 -8.382613 11.674119 -97.927441 12.928529 -10.790849 102.769977 -18.656322 -21.967147 3.392660 0.000000 0.000000 0.000000 13.014681 7.373552 -43.559928 -0.947720 -3.282894 -100.217583 -11.350415 -6.464888 91.054263 4.060769 22.923546 18.027022 0.000000 0.000000 0.000000 12.798999 4.071410 -23.527529 -1.896663 -3.233463 -2.353306 -5.003084 -1.148887 18.251683 0.039886 -0.019834 -0.011638 -4.819733 -1.748540 20.510968 4.425548 -4.397074 0.608522 0.000000 0.000000 0.000000 -0.283950 -1.423360 13.862806 -6.282029 1.407133 6.957397 -18.458323 -6.894209 -22.108737 4.969878 -54.023316 13.616143 0.000000 0.000000 0.000000 -8.010209 0.767306 12.533033 20.269841 11.145609 3.385324 61.320824 -11.201577 0.913406 -21.955117 62.694504 -22.426673 0.000000 0.000000 0.000000 
-1.044721 22.896284 56.726322 -179.922551 10.083072 179.956032 26.918242 -3.315441 -48.320549 -8.440058 11.349091 -97.015351 13.692356 -10.555321 99.762406 -18.214332 -22.240387 3.140875 0.000000 0.000000 0.000000 12.910034 6.808359 -43.648952 -1.098997 -3.124883 -100.300420 -11.553511 -6.555175 91.077041 3.118959 22.128232 17.235508 0.000000 0.000000 0.000000 12.520808 3.606269 -23.599671 -1.662125 -2.915620 -2.644361 -4.921966 -1.124877 18.102499 -0.023868 -0.009033 -0.013797 -4.726584 -1.920714 20.440127 4.477633 -3.955433 0.780012 0.000000 0.000000 0.000000 -0.176401 -1.380375 13.803578 -7.151290 1.862790 6.971937 -20.534988 -5.614112 -20.958937 4.627752 -53.009166 14.309888 0.000000 0.000000 0.000000 -7.877989 0.751749 12.456455 20.826850 11.415042 3.643628 59.163215 -9.629698 1.342778 -21.134738 61.828710 -21.557096 0.000000 0.000000 0.000000 
-1.048269 22.929129 56.761738 179.927646 9.688849 -179.894561 26.780849 -3.938923 -48.536895 -8.315325 11.123771 -96.101288 14.513537 -10.142992 96.646514 -17.861399 -22.443066 3.068905 0.000000 0.000000 0.000000 12.776883 6.187450 -43.761773 -1.201208 -2.832049 -100.433902 -11.587616 -6.739591 90.966263 3.169408 22.087222 17.671738 0.000000 0.000000 0.000000 12.104301 2.987568 -23.745108 -1.483445 -2.523624 -2.948271 -4.883093 -1.063353 17.934101 0.012157 0.026459 -0.008900 -4.673186 -1.932016 20.368058 4.524357 -3.510174 0.846387 0.000000 0.000000 0.000000 -0.112446 -1.351619 13.721989 -7.972153 2.222013 7.054455 -22.506221 -4.388909 -19.497193 4.922356 -52.033208 14.381508 0.000000 0.000000 0.000000 -7.772567 0.791380 12.362192 21.315526 11.706878 3.894333 57.332785 -8.161934 1.702031 -20.420993 60.911381 -20.738169 0.000000 0.000000 0.000000 
-1.016314 22.964334 56.736519 179.896678 9.316431 -179.989186 26.736810 -4.838888 -48.670039 -8.254449 10.954496 -95.115848 15.064566 -9.915416 93.720830 -17.374113 -22.616942 2.945169 0.000000 0.000000 0.000000 12.854181 5.395795 -43.628383 -1.073868 -2.580911 -100.658267 -11.599699 -6.974790 90.989103 3.319251 21.954407 17.972588 0.000000 0.000000 0.000000 11.795949 2.256905 -23.690501 -1.342424 -2.146281 -3.085313 -4.783275 -1.046422 17.832661 -0.012514 -0.003652 0.028775 -4.598170 -1.754203 20.223314 4.574906 -3.080043 0.881385 0.000000 0.000000 0.000000 -0.043119 -1.305324 13.554091 -8.762693 2.559436 7.128146 -24.239423 -3.215532 -18.092671 5.161216 -51.093141 14.522119 0.000000 0.000000 0.000000 -7.682184 0.801972 12.246542 21.672836 12.012496 4.176551 55.772630 -6.740057 1.785774 -19.677616 59.841869 -19.843330 0.000000 0.000000 0.000000 
